# xmcd
#
# Track frame offsets: 
#        150
#        13606
#        29351
#        44800
#        61494
#        76323
#        91238
#        105892
#        122268
#        135619
#        151018
#        162633
#
# Disc length: 2391 seconds
#
# Revision: 1
# Processed by: cddbd v1.5.2PL0 Copyright (c) Steve Scherf et al.
# Submitted via: ExactAudioCopy v0.95b4
#
DISCID=8c09550c
DTITLE=Thelxi - Thelxi
DYEAR=2007
DGENRE=Greek
TTITLE0=Mayissa
TTITLE1=Den isoun i psychi mou
TTITLE2=Mi cheirotera
TTITLE3=Kakokairia
TTITLE4=S' agapao
TTITLE5=Eisai acharistos
TTITLE6=De thelo partides mazi sou
TTITLE7=Oi dyo mas stin akroyialia
TTITLE8=Kalytera eleftheri
TTITLE9=Ma ti sou leo tora
TTITLE10=Mi tolmiseis
TTITLE11=Tha 'maste mazi
EXTD=
EXTT0=
EXTT1=
EXTT2=
EXTT3=
EXTT4=
EXTT5=
EXTT6=
EXTT7=
EXTT8=
EXTT9=
EXTT10=
EXTT11=
PLAYORDER=
